<svg width="800" height="580" viewBox="0 0 800 580" fill="none" xmlns="http://www.w3.org/2000/svg">
<g clip-path="url(#clip0_605_3)">
<rect width="494.806" height="300.033" rx="10" fill="white"/>
<path d="M487.164 0H8.59702C6.318 0.00342957 4.1333 0.910562 2.52179 2.52257C0.91028 4.13458 0.0034285 6.31996 0 8.59968V291.434C0.0034285 293.713 0.91028 295.899 2.52179 297.511C4.1333 299.123 6.318 300.03 8.59702 300.033H487.164C489.443 300.03 491.628 299.123 493.24 297.511C494.851 295.899 495.758 293.713 495.761 291.434V8.59968C495.758 6.31996 494.851 4.13458 493.24 2.52257C491.628 0.910562 489.443 0.00342957 487.164 0ZM493.851 291.434C493.849 293.207 493.144 294.907 491.89 296.161C490.637 297.415 488.937 298.12 487.164 298.122H8.59702C6.82423 298.12 5.12461 297.415 3.87107 296.161C2.61752 294.907 1.91242 293.207 1.91045 291.434V8.59968C1.91242 6.82635 2.61752 5.1262 3.87107 3.87227C5.12462 2.61833 6.82423 1.91301 8.59702 1.91104H487.164C488.937 1.91301 490.637 2.61833 491.89 3.87227C493.144 5.1262 493.849 6.82635 493.851 8.59968V291.434Z" fill="#3F3D56"/>
<path d="M494.806 32.4877H0.955078V34.3981H494.806V32.4877Z" fill="#3F3D56"/>
<path d="M17.1941 21.4992C19.8319 21.4992 21.9702 19.3602 21.9702 16.7216C21.9702 14.083 19.8319 11.944 17.1941 11.944C14.5563 11.944 12.418 14.083 12.418 16.7216C12.418 19.3602 14.5563 21.4992 17.1941 21.4992Z" fill="#FC6E6E"/>
<path d="M31.5222 21.4992C34.16 21.4992 36.2983 19.3602 36.2983 16.7216C36.2983 14.083 34.16 11.944 31.5222 11.944C28.8844 11.944 26.7461 14.083 26.7461 16.7216C26.7461 19.3602 28.8844 21.4992 31.5222 21.4992Z" fill="#FF9900"/>
<path d="M45.8508 21.4992C48.4886 21.4992 50.627 19.3602 50.627 16.7216C50.627 14.083 48.4886 11.944 45.8508 11.944C43.213 11.944 41.0747 14.083 41.0747 16.7216C41.0747 19.3602 43.213 21.4992 45.8508 21.4992Z" fill="#46D343"/>
<path d="M363.463 414.218H132.299C130.146 414.216 128.082 413.359 126.56 411.836C125.038 410.314 124.182 408.249 124.179 406.096V147.15C124.182 144.997 125.038 142.932 126.56 141.41C128.082 139.887 130.146 139.031 132.299 139.028H363.463C365.616 139.031 367.679 139.887 369.202 141.41C370.724 142.932 371.58 144.997 371.582 147.15V406.096C371.58 408.249 370.724 410.314 369.202 411.836C367.679 413.359 365.616 414.216 363.463 414.218Z" fill="#6C63FF"/>
<path d="M315.702 271.846H180.06C176.893 271.846 173.856 270.587 171.617 268.347C169.378 266.107 168.12 263.069 168.12 259.902C168.12 256.734 169.378 253.696 171.617 251.456C173.856 249.216 176.893 247.958 180.06 247.958H315.702C318.869 247.958 321.906 249.216 324.145 251.456C326.384 253.696 327.642 256.734 327.642 259.902C327.642 263.069 326.384 266.107 324.145 268.347C321.906 270.587 318.869 271.846 315.702 271.846Z" fill="white"/>
<path d="M315.702 316.277H180.06C176.893 316.277 173.856 315.019 171.617 312.779C169.378 310.539 168.12 307.501 168.12 304.333C168.12 301.165 169.378 298.127 171.617 295.887C173.856 293.648 176.893 292.389 180.06 292.389H315.702C318.869 292.389 321.906 293.648 324.145 295.887C326.384 298.127 327.642 301.165 327.642 304.333C327.642 307.501 326.384 310.539 324.145 312.779C321.906 315.019 318.869 316.277 315.702 316.277Z" fill="white"/>
<path d="M315.702 361.187H180.06C176.893 361.187 173.856 359.928 171.617 357.688C169.378 355.448 168.12 352.41 168.12 349.243C168.12 346.075 169.378 343.037 171.617 340.797C173.856 338.557 176.893 337.299 180.06 337.299H315.702C318.869 337.299 321.906 338.557 324.145 340.797C326.384 343.037 327.642 346.075 327.642 349.243C327.642 352.41 326.384 355.448 324.145 357.688C321.906 359.928 318.869 361.187 315.702 361.187Z" fill="white"/>
<path d="M274.15 213.081H221.612C218.445 213.081 215.408 211.823 213.169 209.583C210.93 207.343 209.672 204.305 209.672 201.137C209.672 197.969 210.93 194.931 213.169 192.691C215.408 190.451 218.445 189.193 221.612 189.193H274.15C277.316 189.193 280.353 190.451 282.593 192.691C284.832 194.931 286.09 197.969 286.09 201.137C286.09 204.305 284.832 207.343 282.593 209.583C280.353 211.823 277.316 213.081 274.15 213.081Z" fill="white"/>
<path d="M444.657 67.8419H51.1046C45.5652 67.8419 41.0747 72.3338 41.0747 77.8749C41.0747 83.4159 45.5652 87.9078 51.1046 87.9078H444.657C450.196 87.9078 454.687 83.4159 454.687 77.8749C454.687 72.3338 450.196 67.8419 444.657 67.8419Z" fill="#CCCCCC"/>
<path d="M706.501 454.849C707.712 454.246 708.777 453.385 709.619 452.326C710.462 451.266 711.062 450.035 711.378 448.719C711.694 447.402 711.717 446.033 711.446 444.707C711.175 443.38 710.617 442.129 709.811 441.042L731.382 321.626L711.252 321.36L696.273 439.448C694.537 440.924 693.402 442.986 693.084 445.243C692.766 447.499 693.287 449.794 694.548 451.693C695.809 453.591 697.722 454.961 699.925 455.543C702.128 456.125 704.467 455.878 706.501 454.849Z" fill="#A0616A"/>
<path d="M644.027 449.187L636.385 485.497L637.34 566.716H651.668L658.355 487.408L668.862 453.965L644.027 449.187Z" fill="#A0616A"/>
<path d="M691.788 449.187L684.146 485.497L685.101 566.716H699.43L706.116 487.408L716.624 453.965L691.788 449.187Z" fill="#A0616A"/>
<path d="M632.653 564.458L655.215 565.482L654.57 579.692L617.802 578.023C617.887 576.157 618.338 574.325 619.131 572.634C619.923 570.942 621.04 569.423 622.419 568.163C623.798 566.904 625.412 565.928 627.168 565.292C628.923 564.657 630.787 564.373 632.653 564.458Z" fill="#2F2E41"/>
<path d="M680.414 564.458L702.976 565.482L702.331 579.692L665.564 578.023C665.648 576.157 666.1 574.325 666.892 572.634C667.684 570.942 668.801 569.423 670.18 568.163C671.559 566.904 673.173 565.928 674.929 565.292C676.685 564.657 678.549 564.373 680.414 564.458Z" fill="#2F2E41"/>
<path d="M678.892 271.12C691.849 271.12 702.353 260.613 702.353 247.652C702.353 234.691 691.849 224.183 678.892 224.183C665.935 224.183 655.431 234.691 655.431 247.652C655.431 260.613 665.935 271.12 678.892 271.12Z" fill="#A0616A"/>
<path d="M730.739 305.699C722.976 293.514 697.148 263.152 658.832 288.183C658.832 288.183 667.907 364.146 645.937 405.234C645.937 405.234 696.563 420.522 724.265 406.189C724.265 406.189 714.713 342.169 724.265 329.748C727.45 325.778 730.03 321.358 731.919 316.632C732.582 314.843 732.821 312.924 732.617 311.026C732.412 309.129 731.769 307.305 730.739 305.699Z" fill="#CCCCCC"/>
<path d="M721.4 304.904L730.774 308.811C731.398 309.071 731.935 309.504 732.322 310.059C732.708 310.614 732.929 311.267 732.957 311.943L733.818 332.614L712.803 330.703L721.4 304.904Z" fill="#CCCCCC"/>
<path d="M649.758 403.323C649.758 403.323 628.743 442.499 632.564 478.809L662.176 483.586L683.191 432.944L678.415 484.542L708.982 485.497C708.982 485.497 729.042 410.967 722.355 404.278L649.758 403.323Z" fill="#2F2E41"/>
<path d="M644.411 445.294C645.622 444.691 646.687 443.83 647.53 442.77C648.372 441.711 648.973 440.48 649.288 439.164C649.604 437.847 649.627 436.478 649.356 435.151C649.085 433.825 648.527 432.574 647.721 431.487L669.292 312.071L649.163 311.805L634.183 429.893C632.447 431.369 631.312 433.43 630.994 435.687C630.676 437.944 631.197 440.239 632.458 442.138C633.719 444.036 635.632 445.406 637.835 445.988C640.038 446.57 642.377 446.323 644.411 445.294Z" fill="#A0616A"/>
<path d="M667.907 288.66L659.31 287.705C659.31 287.705 651.668 285.794 648.803 296.304C645.937 306.815 645.937 327.837 645.937 327.837L672.683 326.881L667.907 288.66Z" fill="#CCCCCC"/>
<path d="M682.65 258.95C683.493 256.025 683.249 252.066 680.414 250.959C678.936 250.383 677.288 250.837 675.71 250.999C672.623 251.302 669.533 250.452 667.036 248.611C664.103 246.43 662.292 243.096 660.571 239.87L657.969 234.992C657.39 233.975 656.896 232.912 656.493 231.813C655.045 227.506 656.617 222.52 659.835 219.313C663.199 216.183 667.624 214.448 672.218 214.457C676.775 214.49 681.278 215.455 685.449 217.292C692.862 220.315 699.577 224.827 705.177 230.55C708.838 234.296 712.17 239.176 711.405 244.357C710.81 248.391 707.87 251.621 705.067 254.581L694.899 265.318C693.098 267.22 691.174 269.199 688.66 269.93C686.145 270.661 682.906 269.587 682.221 267.059C682.221 267.059 681.808 261.876 682.65 258.95Z" fill="#2F2E41"/>
<path d="M800 579.044C799.999 579.297 799.898 579.54 799.719 579.719C799.54 579.898 799.298 579.999 799.045 579.999H523.94C523.687 579.999 523.444 579.899 523.265 579.72C523.086 579.541 522.985 579.298 522.985 579.044C522.985 578.791 523.086 578.548 523.265 578.369C523.444 578.19 523.687 578.089 523.94 578.089H799.045C799.298 578.09 799.54 578.191 799.719 578.37C799.898 578.549 799.999 578.791 800 579.044Z" fill="#3F3D56"/>
<path d="M48.4034 82L46.4091 75.4545H47.4659L48.8807 80.4659H48.9489L50.3466 75.4545H51.4205L52.8011 80.4489H52.8693L54.2841 75.4545H55.3409L53.3466 82H52.358L50.9261 76.9716H50.8239L49.392 82H48.4034ZM58.1534 82L56.1591 75.4545H57.2159L58.6307 80.4659H58.6989L60.0966 75.4545H61.1705L62.5511 80.4489H62.6193L64.0341 75.4545H65.0909L63.0966 82H62.108L60.6761 76.9716H60.5739L59.142 82H58.1534ZM67.9034 82L65.9091 75.4545H66.9659L68.3807 80.4659H68.4489L69.8466 75.4545H70.9205L72.3011 80.4489H72.3693L73.7841 75.4545H74.8409L72.8466 82H71.858L70.4261 76.9716H70.3239L68.892 82H67.9034ZM76.0128 82.0682C75.8026 82.0682 75.6222 81.9929 75.4716 81.8423C75.321 81.6918 75.2457 81.5114 75.2457 81.3011C75.2457 81.0909 75.321 80.9105 75.4716 80.7599C75.6222 80.6094 75.8026 80.5341 76.0128 80.5341C76.223 80.5341 76.4034 80.6094 76.554 80.7599C76.7045 80.9105 76.7798 81.0909 76.7798 81.3011C76.7798 81.4403 76.7443 81.5682 76.6733 81.6847C76.6051 81.8011 76.5128 81.8949 76.3963 81.9659C76.2827 82.0341 76.1548 82.0682 76.0128 82.0682ZM80.0675 82L78.0732 75.4545H79.13L80.5447 80.4659H80.6129L82.0107 75.4545H83.0845L84.4652 80.4489H84.5334L85.9482 75.4545H87.005L85.0107 82H84.022L82.5902 76.9716H82.4879L81.0561 82H80.0675ZM88.3345 82V75.4545H89.3061V76.4432H89.3743C89.4936 76.1193 89.7095 75.8565 90.022 75.6548C90.3345 75.4531 90.6868 75.3523 91.0788 75.3523C91.1527 75.3523 91.245 75.3537 91.3558 75.3565C91.4666 75.3594 91.5504 75.3636 91.6072 75.3693V76.392C91.5732 76.3835 91.495 76.3707 91.3729 76.3537C91.2536 76.3338 91.1271 76.3239 90.9936 76.3239C90.6754 76.3239 90.3913 76.3906 90.1413 76.5241C89.8942 76.6548 89.6982 76.8366 89.5533 77.0696C89.4112 77.2997 89.3402 77.5625 89.3402 77.858V82H88.3345ZM94.7255 82.1534C94.3107 82.1534 93.9343 82.0753 93.5962 81.919C93.2582 81.7599 92.9897 81.5312 92.7908 81.233C92.592 80.9318 92.4925 80.5682 92.4925 80.142C92.4925 79.767 92.5664 79.4631 92.7141 79.2301C92.8619 78.9943 93.0593 78.8097 93.3065 78.6761C93.5536 78.5426 93.8263 78.4432 94.1246 78.3778C94.4258 78.3097 94.7283 78.2557 95.0323 78.2159C95.43 78.1648 95.7525 78.1264 95.9996 78.1009C96.2496 78.0724 96.4315 78.0256 96.5451 77.9602C96.6616 77.8949 96.7198 77.7812 96.7198 77.6193V77.5852C96.7198 77.1648 96.6048 76.8381 96.3746 76.6051C96.1474 76.3722 95.8022 76.2557 95.3391 76.2557C94.859 76.2557 94.4826 76.3608 94.2099 76.571C93.9371 76.7812 93.7454 77.0057 93.6346 77.2443L92.68 76.9034C92.8505 76.5057 93.0778 76.196 93.3619 75.9744C93.6488 75.75 93.9613 75.5937 94.2994 75.5057C94.6403 75.4148 94.9755 75.3693 95.305 75.3693C95.5153 75.3693 95.7567 75.3949 96.0295 75.446C96.305 75.4943 96.5707 75.5952 96.8263 75.7486C97.0849 75.902 97.2994 76.1335 97.4698 76.4432C97.6403 76.7528 97.7255 77.1676 97.7255 77.6875V82H96.7198V81.1136H96.6687C96.6005 81.2557 96.4869 81.4077 96.3278 81.5696C96.1687 81.7315 95.957 81.8693 95.6928 81.983C95.4286 82.0966 95.1062 82.1534 94.7255 82.1534ZM94.8789 81.25C95.2766 81.25 95.6119 81.1719 95.8846 81.0156C96.1602 80.8594 96.3675 80.6577 96.5067 80.4105C96.6488 80.1634 96.7198 79.9034 96.7198 79.6307V78.7102C96.6772 78.7614 96.5835 78.8082 96.4386 78.8509C96.2965 78.8906 96.1317 78.9261 95.9442 78.9574C95.7596 78.9858 95.5792 79.0114 95.4031 79.0341C95.2298 79.054 95.0891 79.071 94.9812 79.0852C94.7198 79.1193 94.4755 79.1747 94.2482 79.2514C94.0238 79.3253 93.842 79.4375 93.7028 79.5881C93.5664 79.7358 93.4982 79.9375 93.4982 80.1932C93.4982 80.5426 93.6275 80.8068 93.886 80.9858C94.1474 81.1619 94.4783 81.25 94.8789 81.25ZM99.5611 84.4545V75.4545H100.533V76.4943H100.652C100.726 76.3807 100.828 76.2358 100.959 76.0597C101.092 75.8807 101.283 75.7216 101.53 75.5824C101.78 75.4403 102.118 75.3693 102.544 75.3693C103.095 75.3693 103.581 75.5071 104.001 75.7827C104.422 76.0582 104.75 76.4489 104.986 76.9545C105.222 77.4602 105.339 78.0568 105.339 78.7443C105.339 79.4375 105.222 80.0384 104.986 80.5469C104.75 81.0526 104.423 81.4446 104.006 81.723C103.588 81.9986 103.107 82.1364 102.561 82.1364C102.141 82.1364 101.804 82.0668 101.551 81.9276C101.298 81.7855 101.104 81.625 100.967 81.446C100.831 81.2642 100.726 81.1136 100.652 80.9943H100.567V84.4545H99.5611ZM100.55 78.7273C100.55 79.2216 100.622 79.6577 100.767 80.0355C100.912 80.4105 101.124 80.7045 101.402 80.9176C101.68 81.1278 102.021 81.233 102.425 81.233C102.845 81.233 103.196 81.1222 103.477 80.9006C103.761 80.6761 103.974 80.375 104.116 79.9972C104.261 79.6165 104.334 79.1932 104.334 78.7273C104.334 78.267 104.263 77.8523 104.121 77.483C103.982 77.1108 103.77 76.8168 103.486 76.6009C103.205 76.3821 102.851 76.2727 102.425 76.2727C102.016 76.2727 101.672 76.3764 101.393 76.5838C101.115 76.7884 100.905 77.0753 100.763 77.4446C100.621 77.8111 100.55 78.2386 100.55 78.7273ZM110.999 79.3239V75.4545H112.004V82H110.999V80.892H110.93C110.777 81.2244 110.538 81.5071 110.214 81.7401C109.891 81.9702 109.482 82.0852 108.987 82.0852C108.578 82.0852 108.214 81.9957 107.896 81.8168C107.578 81.6349 107.328 81.3622 107.146 80.9986C106.964 80.6321 106.874 80.1705 106.874 79.6136V75.4545H107.879V79.5455C107.879 80.0227 108.013 80.4034 108.28 80.6875C108.55 80.9716 108.893 81.1136 109.311 81.1136C109.561 81.1136 109.815 81.0497 110.074 80.9219C110.335 80.794 110.554 80.598 110.73 80.3338C110.909 80.0696 110.999 79.733 110.999 79.3239ZM113.846 84.4545V75.4545H114.818V76.4943H114.937C115.011 76.3807 115.113 76.2358 115.244 76.0597C115.377 75.8807 115.568 75.7216 115.815 75.5824C116.065 75.4403 116.403 75.3693 116.829 75.3693C117.38 75.3693 117.866 75.5071 118.287 75.7827C118.707 76.0582 119.035 76.4489 119.271 76.9545C119.507 77.4602 119.625 78.0568 119.625 78.7443C119.625 79.4375 119.507 80.0384 119.271 80.5469C119.035 81.0526 118.708 81.4446 118.291 81.723C117.873 81.9986 117.392 82.1364 116.846 82.1364C116.426 82.1364 116.089 82.0668 115.836 81.9276C115.583 81.7855 115.389 81.625 115.252 81.446C115.116 81.2642 115.011 81.1136 114.937 80.9943H114.852V84.4545H113.846ZM114.835 78.7273C114.835 79.2216 114.907 79.6577 115.052 80.0355C115.197 80.4105 115.409 80.7045 115.687 80.9176C115.966 81.1278 116.306 81.233 116.71 81.233C117.13 81.233 117.481 81.1222 117.762 80.9006C118.047 80.6761 118.26 80.375 118.402 79.9972C118.547 79.6165 118.619 79.1932 118.619 78.7273C118.619 78.267 118.548 77.8523 118.406 77.483C118.267 77.1108 118.055 76.8168 117.771 76.6009C117.49 76.3821 117.136 76.2727 116.71 76.2727C116.301 76.2727 115.957 76.3764 115.679 76.5838C115.4 76.7884 115.19 77.0753 115.048 77.4446C114.906 77.8111 114.835 78.2386 114.835 78.7273ZM125.795 76.9205L124.892 77.1761C124.835 77.0256 124.751 76.8793 124.64 76.7372C124.532 76.5923 124.385 76.473 124.197 76.3793C124.01 76.2855 123.77 76.2386 123.477 76.2386C123.076 76.2386 122.743 76.331 122.475 76.5156C122.211 76.6974 122.079 76.929 122.079 77.2102C122.079 77.4602 122.17 77.6577 122.352 77.8026C122.534 77.9474 122.818 78.0682 123.204 78.1648L124.176 78.4034C124.761 78.5455 125.197 78.7628 125.484 79.0554C125.771 79.3452 125.914 79.7187 125.914 80.1761C125.914 80.5511 125.806 80.8864 125.591 81.1818C125.377 81.4773 125.079 81.7102 124.696 81.8807C124.312 82.0511 123.866 82.1364 123.358 82.1364C122.69 82.1364 122.137 81.9915 121.7 81.7017C121.262 81.4119 120.985 80.9886 120.869 80.4318L121.824 80.1932C121.914 80.5455 122.086 80.8097 122.339 80.9858C122.595 81.1619 122.929 81.25 123.341 81.25C123.809 81.25 124.181 81.1506 124.457 80.9517C124.735 80.75 124.875 80.5085 124.875 80.2273C124.875 80 124.795 79.8097 124.636 79.6562C124.477 79.5 124.233 79.3835 123.903 79.3068L122.812 79.0511C122.213 78.9091 121.772 78.6889 121.491 78.3906C121.213 78.0895 121.074 77.7131 121.074 77.2614C121.074 76.892 121.177 76.5653 121.385 76.2812C121.595 75.9972 121.88 75.7741 122.241 75.6122C122.605 75.4503 123.017 75.3693 123.477 75.3693C124.125 75.3693 124.633 75.5114 125.002 75.7955C125.375 76.0795 125.639 76.4545 125.795 76.9205ZM130.087 82.1364C129.474 82.1364 128.945 81.9915 128.502 81.7017C128.059 81.4119 127.718 81.0128 127.479 80.5043C127.241 79.9957 127.121 79.4148 127.121 78.7614C127.121 78.0966 127.244 77.5099 127.488 77.0014C127.735 76.4901 128.079 76.0909 128.519 75.804C128.962 75.5142 129.479 75.3693 130.07 75.3693C130.531 75.3693 130.945 75.4545 131.315 75.625C131.684 75.7955 131.987 76.0341 132.222 76.3409C132.458 76.6477 132.604 77.0057 132.661 77.4148H131.656C131.579 77.1165 131.408 76.8523 131.144 76.6222C130.883 76.3892 130.531 76.2727 130.087 76.2727C129.695 76.2727 129.352 76.375 129.056 76.5795C128.763 76.7812 128.535 77.0668 128.37 77.4361C128.208 77.8026 128.127 78.233 128.127 78.7273C128.127 79.233 128.207 79.6733 128.366 80.0483C128.528 80.4233 128.755 80.7145 129.048 80.9219C129.343 81.1293 129.69 81.233 130.087 81.233C130.349 81.233 130.586 81.1875 130.799 81.0966C131.012 81.0057 131.192 80.875 131.34 80.7045C131.488 80.5341 131.593 80.3295 131.656 80.0909H132.661C132.604 80.4773 132.464 80.8253 132.239 81.1349C132.018 81.4418 131.724 81.6861 131.357 81.8679C130.994 82.0469 130.57 82.1364 130.087 82.1364ZM135.137 78.0625V82H134.131V73.2727H135.137V76.4773H135.222C135.376 76.1392 135.606 75.8707 135.913 75.6719C136.222 75.4702 136.634 75.3693 137.148 75.3693C137.594 75.3693 137.985 75.4588 138.32 75.6378C138.656 75.8139 138.915 76.0852 139.1 76.4517C139.288 76.8153 139.381 77.2784 139.381 77.8409V82H138.376V77.9091C138.376 77.3892 138.241 76.9872 137.971 76.7031C137.704 76.4162 137.333 76.2727 136.859 76.2727C136.529 76.2727 136.234 76.3423 135.972 76.4815C135.714 76.6207 135.509 76.8239 135.359 77.0909C135.211 77.358 135.137 77.6818 135.137 78.0625ZM143.88 82.1364C143.289 82.1364 142.771 81.9957 142.325 81.7145C141.882 81.4332 141.535 81.0398 141.285 80.5341C141.038 80.0284 140.914 79.4375 140.914 78.7614C140.914 78.0795 141.038 77.4844 141.285 76.9759C141.535 76.4673 141.882 76.0724 142.325 75.7912C142.771 75.5099 143.289 75.3693 143.88 75.3693C144.471 75.3693 144.988 75.5099 145.431 75.7912C145.877 76.0724 146.224 76.4673 146.471 76.9759C146.721 77.4844 146.846 78.0795 146.846 78.7614C146.846 79.4375 146.721 80.0284 146.471 80.5341C146.224 81.0398 145.877 81.4332 145.431 81.7145C144.988 81.9957 144.471 82.1364 143.88 82.1364ZM143.88 81.233C144.329 81.233 144.699 81.1179 144.988 80.8878C145.278 80.6577 145.493 80.3551 145.632 79.9801C145.771 79.6051 145.841 79.1989 145.841 78.7614C145.841 78.3239 145.771 77.9162 145.632 77.5384C145.493 77.1605 145.278 76.8551 144.988 76.6222C144.699 76.3892 144.329 76.2727 143.88 76.2727C143.431 76.2727 143.062 76.3892 142.772 76.6222C142.483 76.8551 142.268 77.1605 142.129 77.5384C141.99 77.9162 141.92 78.3239 141.92 78.7614C141.92 79.1989 141.99 79.6051 142.129 79.9801C142.268 80.3551 142.483 80.6577 142.772 80.8878C143.062 81.1179 143.431 81.233 143.88 81.233ZM151.04 82.1364C150.45 82.1364 149.931 81.9957 149.485 81.7145C149.042 81.4332 148.695 81.0398 148.445 80.5341C148.198 80.0284 148.075 79.4375 148.075 78.7614C148.075 78.0795 148.198 77.4844 148.445 76.9759C148.695 76.4673 149.042 76.0724 149.485 75.7912C149.931 75.5099 150.45 75.3693 151.04 75.3693C151.631 75.3693 152.148 75.5099 152.592 75.7912C153.038 76.0724 153.384 76.4673 153.631 76.9759C153.881 77.4844 154.006 78.0795 154.006 78.7614C154.006 79.4375 153.881 80.0284 153.631 80.5341C153.384 81.0398 153.038 81.4332 152.592 81.7145C152.148 81.9957 151.631 82.1364 151.04 82.1364ZM151.04 81.233C151.489 81.233 151.859 81.1179 152.148 80.8878C152.438 80.6577 152.653 80.3551 152.792 79.9801C152.931 79.6051 153.001 79.1989 153.001 78.7614C153.001 78.3239 152.931 77.9162 152.792 77.5384C152.653 77.1605 152.438 76.8551 152.148 76.6222C151.859 76.3892 151.489 76.2727 151.04 76.2727C150.592 76.2727 150.222 76.3892 149.933 76.6222C149.643 76.8551 149.428 77.1605 149.289 77.5384C149.15 77.9162 149.08 78.3239 149.08 78.7614C149.08 79.1989 149.15 79.6051 149.289 79.9801C149.428 80.3551 149.643 80.6577 149.933 80.8878C150.222 81.1179 150.592 81.233 151.04 81.233ZM156.547 73.2727V82H155.542V73.2727H156.547ZM159.122 82.0682C158.912 82.0682 158.732 81.9929 158.581 81.8423C158.43 81.6918 158.355 81.5114 158.355 81.3011C158.355 81.0909 158.43 80.9105 158.581 80.7599C158.732 80.6094 158.912 80.5341 159.122 80.5341C159.332 80.5341 159.513 80.6094 159.663 80.7599C159.814 80.9105 159.889 81.0909 159.889 81.3011C159.889 81.4403 159.854 81.5682 159.783 81.6847C159.714 81.8011 159.622 81.8949 159.506 81.9659C159.392 82.0341 159.264 82.0682 159.122 82.0682ZM164.353 82.1364C163.739 82.1364 163.211 81.9915 162.768 81.7017C162.325 81.4119 161.984 81.0128 161.745 80.5043C161.506 79.9957 161.387 79.4148 161.387 78.7614C161.387 78.0966 161.509 77.5099 161.754 77.0014C162.001 76.4901 162.344 76.0909 162.785 75.804C163.228 75.5142 163.745 75.3693 164.336 75.3693C164.796 75.3693 165.211 75.4545 165.58 75.625C165.95 75.7955 166.252 76.0341 166.488 76.3409C166.724 76.6477 166.87 77.0057 166.927 77.4148H165.921C165.844 77.1165 165.674 76.8523 165.41 76.6222C165.148 76.3892 164.796 76.2727 164.353 76.2727C163.961 76.2727 163.617 76.375 163.322 76.5795C163.029 76.7812 162.8 77.0668 162.636 77.4361C162.474 77.8026 162.393 78.233 162.393 78.7273C162.393 79.233 162.472 79.6733 162.631 80.0483C162.793 80.4233 163.021 80.7145 163.313 80.9219C163.609 81.1293 163.955 81.233 164.353 81.233C164.614 81.233 164.852 81.1875 165.065 81.0966C165.278 81.0057 165.458 80.875 165.606 80.7045C165.754 80.5341 165.859 80.3295 165.921 80.0909H166.927C166.87 80.4773 166.729 80.8253 166.505 81.1349C166.283 81.4418 165.989 81.6861 165.623 81.8679C165.259 82.0469 164.836 82.1364 164.353 82.1364ZM171.056 82.1364C170.465 82.1364 169.947 81.9957 169.501 81.7145C169.058 81.4332 168.711 81.0398 168.461 80.5341C168.214 80.0284 168.09 79.4375 168.09 78.7614C168.09 78.0795 168.214 77.4844 168.461 76.9759C168.711 76.4673 169.058 76.0724 169.501 75.7912C169.947 75.5099 170.465 75.3693 171.056 75.3693C171.647 75.3693 172.164 75.5099 172.607 75.7912C173.053 76.0724 173.4 76.4673 173.647 76.9759C173.897 77.4844 174.022 78.0795 174.022 78.7614C174.022 79.4375 173.897 80.0284 173.647 80.5341C173.4 81.0398 173.053 81.4332 172.607 81.7145C172.164 81.9957 171.647 82.1364 171.056 82.1364ZM171.056 81.233C171.505 81.233 171.874 81.1179 172.164 80.8878C172.454 80.6577 172.668 80.3551 172.808 79.9801C172.947 79.6051 173.016 79.1989 173.016 78.7614C173.016 78.3239 172.947 77.9162 172.808 77.5384C172.668 77.1605 172.454 76.8551 172.164 76.6222C171.874 76.3892 171.505 76.2727 171.056 76.2727C170.607 76.2727 170.238 76.3892 169.948 76.6222C169.658 76.8551 169.444 77.1605 169.305 77.5384C169.165 77.9162 169.096 78.3239 169.096 78.7614C169.096 79.1989 169.165 79.6051 169.305 79.9801C169.444 80.3551 169.658 80.6577 169.948 80.8878C170.238 81.1179 170.607 81.233 171.056 81.233ZM175.557 82V75.4545H176.529V76.4773H176.614C176.75 76.1278 176.971 75.8565 177.275 75.6634C177.578 75.4673 177.944 75.3693 178.37 75.3693C178.801 75.3693 179.161 75.4673 179.448 75.6634C179.738 75.8565 179.963 76.1278 180.125 76.4773H180.194C180.361 76.1392 180.613 75.8707 180.948 75.6719C181.283 75.4702 181.685 75.3693 182.154 75.3693C182.739 75.3693 183.218 75.5526 183.59 75.919C183.962 76.2827 184.148 76.8494 184.148 77.6193V82H183.142V77.6193C183.142 77.1364 183.01 76.7912 182.746 76.5838C182.482 76.3764 182.171 76.2727 181.813 76.2727C181.353 76.2727 180.996 76.4119 180.743 76.6903C180.49 76.9659 180.364 77.3153 180.364 77.7386V82H179.341V77.517C179.341 77.1449 179.221 76.8452 178.979 76.6179C178.738 76.3878 178.426 76.2727 178.046 76.2727C177.784 76.2727 177.54 76.3423 177.313 76.4815C177.088 76.6207 176.907 76.8139 176.767 77.0611C176.631 77.3054 176.563 77.5881 176.563 77.9091V82H175.557Z" fill="black"/>
</g>
<defs>
<clipPath id="clip0_605_3">
<rect width="800" height="580" fill="white"/>
</clipPath>
</defs>
</svg>
