<?xml version="1.0" encoding="UTF-8"?>
<!DOCTYPE svg PUBLIC "-//W3C//DTD SVG 1.1//EN" "http://www.w3.org/Graphics/SVG/1.1/DTD/svg11.dtd">
<svg xmlns="http://www.w3.org/2000/svg" version="1.1" width="377px" height="273px" style="shape-rendering:geometricPrecision; text-rendering:geometricPrecision; image-rendering:optimizeQuality; fill-rule:evenodd; clip-rule:evenodd" xmlns:xlink="http://www.w3.org/1999/xlink">
<g><path style="opacity:0.49" fill="#abadae" d="M 88.5,25.5 C 82.4638,25.3599 76.4638,25.6932 70.5,26.5C 73.6952,24.9704 77.1952,24.3037 81,24.5C 83.6903,24.5029 86.1903,24.8362 88.5,25.5 Z"/></g>
<g><path style="opacity:0.38" fill="#a3a2a3" d="M 89.5,25.5 C 91.7857,25.595 93.7857,26.2616 95.5,27.5C 93.1016,27.7406 91.1016,27.0739 89.5,25.5 Z"/></g>
<g><path style="opacity:0.831" fill="#666866" d="M 70.5,26.5 C 68.8243,28.8337 66.491,29.8337 63.5,29.5C 65.4261,27.7073 67.7594,26.7073 70.5,26.5 Z"/></g>
<g><path style="opacity:0.224" fill="#b9b7b8" d="M 95.5,27.5 C 99.4201,28.1266 102.753,29.7933 105.5,32.5C 101.849,31.3411 98.5154,29.6744 95.5,27.5 Z"/></g>
<g><path style="opacity:0.537" fill="#8f8f92" d="M 63.5,29.5 C 63.0269,30.9063 62.0269,31.573 60.5,31.5C 60.9731,30.0937 61.9731,29.427 63.5,29.5 Z"/></g>
<g><path style="opacity:0.604" fill="#878484" d="M 60.5,31.5 C 57.8333,34.8333 54.8333,37.8333 51.5,40.5C 53.5,36.5 56.5,33.5 60.5,31.5 Z"/></g>
<g><path style="opacity:0.012" fill="#b1b0b4" d="M 107.5,33.5 C 109.754,34.1237 111.421,35.457 112.5,37.5C 110.205,36.8645 108.539,35.5311 107.5,33.5 Z"/></g>
<g><path style="opacity:0.192" fill="#bec0bd" d="M 51.5,40.5 C 51.573,42.0269 50.9063,43.0269 49.5,43.5C 49.427,41.9731 50.0937,40.9731 51.5,40.5 Z"/></g>
<g><path style="opacity:0.604" fill="#9f9d9e" d="M 116.5,41.5 C 118.914,42.9108 120.581,44.9108 121.5,47.5C 119.086,46.0892 117.419,44.0892 116.5,41.5 Z"/></g>
<g><path style="opacity:0.31" fill="#acacad" d="M 121.5,47.5 C 123.262,48.2623 124.262,49.5956 124.5,51.5C 122.738,50.7377 121.738,49.4044 121.5,47.5 Z"/></g>
<g><path style="opacity:0.18" fill="#c6c9c5" d="M 124.5,51.5 C 125.906,51.9731 126.573,52.9731 126.5,54.5C 125.094,54.0269 124.427,53.0269 124.5,51.5 Z"/></g>
<g><path style="opacity:0.373" fill="#a1a9aa" d="M 46.5,50.5 C 46.5905,53.1522 45.9238,55.4855 44.5,57.5C 44.1706,54.7718 44.8372,52.4385 46.5,50.5 Z"/></g>
<g><path style="opacity:0.161" fill="#bcb9bd" d="M 127.5,56.5 C 129.104,57.287 129.771,58.6203 129.5,60.5C 128.326,59.4863 127.66,58.153 127.5,56.5 Z"/></g>
<g><path style="opacity:0.216" fill="#b6b2b4" d="M 129.5,60.5 C 130.906,60.9731 131.573,61.9731 131.5,63.5C 130.094,63.0269 129.427,62.0269 129.5,60.5 Z"/></g>
<g><path style="opacity:0.753" fill="#87848a" d="M 131.5,63.5 C 133.065,65.5093 134.065,67.8427 134.5,70.5C 132.166,68.8243 131.166,66.491 131.5,63.5 Z"/></g>
<g><path style="opacity:0.071" fill="#c8cccd" d="M 44.5,68.5 C 45.7328,72.0064 46.7328,75.6731 47.5,79.5C 45.1257,76.3141 44.1257,72.6474 44.5,68.5 Z"/></g>
<g><path style="opacity:0.993" fill="#171c17" d="M 88.5,25.5 C 88.8333,25.5 89.1667,25.5 89.5,25.5C 91.1016,27.0739 93.1016,27.7406 95.5,27.5C 98.5154,29.6744 101.849,31.3411 105.5,32.5C 106.492,32.3284 107.158,32.6618 107.5,33.5C 108.539,35.5311 110.205,36.8645 112.5,37.5C 114.167,38.5 115.5,39.8333 116.5,41.5C 117.419,44.0892 119.086,46.0892 121.5,47.5C 121.738,49.4044 122.738,50.7377 124.5,51.5C 124.427,53.0269 125.094,54.0269 126.5,54.5C 127.338,54.8417 127.672,55.5084 127.5,56.5C 127.66,58.153 128.326,59.4863 129.5,60.5C 129.427,62.0269 130.094,63.0269 131.5,63.5C 131.166,66.491 132.166,68.8243 134.5,70.5C 135.404,71.209 135.737,72.209 135.5,73.5C 136.387,78.7221 137.721,83.7221 139.5,88.5C 140.451,89.9187 140.784,91.5853 140.5,93.5C 140.438,98.0758 141.105,102.409 142.5,106.5C 142.5,107.167 142.5,107.833 142.5,108.5C 142.586,115.037 143.253,121.37 144.5,127.5C 145.423,131.064 145.756,134.731 145.5,138.5C 145.285,140.179 145.952,141.179 147.5,141.5C 145.856,142.316 144.69,143.65 144,145.5C 143.817,142.635 143.317,139.969 142.5,137.5C 142.795,135.265 142.461,133.265 141.5,131.5C 141.243,125.312 140.577,119.312 139.5,113.5C 139.55,107.611 138.884,101.944 137.5,96.5C 137.102,92.2393 136.102,88.2393 134.5,84.5C 134.785,81.1709 134.118,78.1709 132.5,75.5C 127.439,58.7804 117.772,45.447 103.5,35.5C 103.167,35.5 102.833,35.5 102.5,35.5C 91.4989,27.9905 79.8322,26.6571 67.5,31.5C 64.3257,32.0102 61.9923,33.6769 60.5,36.5C 56.4259,38.6181 53.7592,41.9514 52.5,46.5C 47.133,54.9901 46.133,63.9901 49.5,73.5C 49.5,73.8333 49.5,74.1667 49.5,74.5C 58.057,94.058 72.057,108.391 91.5,117.5C 91.9371,119.074 92.9371,120.241 94.5,121C 98.3944,123.446 102.394,125.612 106.5,127.5C 113.203,131.172 119.869,134.839 126.5,138.5C 123.833,138.167 121.167,137.833 118.5,137.5C 117.22,136.069 115.553,135.402 113.5,135.5C 113.027,134.094 112.027,133.427 110.5,133.5C 109.508,133.672 108.842,133.338 108.5,132.5C 106.819,130.992 104.819,129.992 102.5,129.5C 102.027,128.094 101.027,127.427 99.5,127.5C 98.5084,127.672 97.8417,127.338 97.5,126.5C 97.0269,125.094 96.0269,124.427 94.5,124.5C 93.5084,124.672 92.8417,124.338 92.5,123.5C 92.0269,122.094 91.0269,121.427 89.5,121.5C 89.0269,120.094 88.0269,119.427 86.5,119.5C 86.0269,118.094 85.0269,117.427 83.5,117.5C 81.8525,115.674 79.8525,114.34 77.5,113.5C 76.4154,111.413 74.7488,110.08 72.5,109.5C 71.0892,107.086 69.0892,105.419 66.5,104.5C 63.8333,101.167 60.8333,98.1667 57.5,95.5C 57.1667,94.5 56.5,93.8333 55.5,93.5C 55.573,91.9731 54.9063,90.9731 53.5,90.5C 53.573,88.9731 52.9063,87.9731 51.5,87.5C 51.3404,85.847 50.6737,84.5137 49.5,83.5C 48.3263,82.4863 47.6596,81.153 47.5,79.5C 46.7328,75.6731 45.7328,72.0064 44.5,68.5C 43.2134,64.7316 43.2134,61.0649 44.5,57.5C 45.9238,55.4855 46.5905,53.1522 46.5,50.5C 46.9348,47.8427 47.9348,45.5093 49.5,43.5C 50.9063,43.0269 51.573,42.0269 51.5,40.5C 54.8333,37.8333 57.8333,34.8333 60.5,31.5C 62.0269,31.573 63.0269,30.9063 63.5,29.5C 66.491,29.8337 68.8243,28.8337 70.5,26.5C 76.4638,25.6932 82.4638,25.3599 88.5,25.5 Z"/></g>
<g><path style="opacity:1" fill="#318c4d" d="M 52.5,46.5 C 52.3822,49.6883 51.5489,52.6883 50,55.5C 49.5005,61.4908 49.3338,67.4908 49.5,73.5C 46.133,63.9901 47.133,54.9901 52.5,46.5 Z"/></g>
<g><path style="opacity:1" fill="#31994f" d="M 103.5,35.5 C 117.772,45.447 127.439,58.7804 132.5,75.5C 130.189,72.853 127.856,70.1864 125.5,67.5C 123.457,59.8278 119.79,53.1611 114.5,47.5C 113.009,46.7564 111.509,46.0897 110,45.5C 108.284,41.6672 106.118,38.3339 103.5,35.5 Z"/></g>
<g><path style="opacity:1" fill="#339b51" d="M 60.5,36.5 C 58.8557,39.0045 57.3557,41.6711 56,44.5C 55.1841,45.8228 54.0174,46.4894 52.5,46.5C 53.7592,41.9514 56.4259,38.6181 60.5,36.5 Z"/></g>
<g><path style="opacity:1" fill="#349a51" d="M 102.5,35.5 C 97.9326,34.6302 93.5993,33.1302 89.5,31C 82.1385,30.3167 74.8052,30.4833 67.5,31.5C 79.8322,26.6571 91.4989,27.9905 102.5,35.5 Z"/></g>
<g><path style="opacity:1" fill="#22af4c" d="M 102.5,35.5 C 102.833,35.5 103.167,35.5 103.5,35.5C 106.118,38.3339 108.284,41.6672 110,45.5C 111.509,46.0897 113.009,46.7564 114.5,47.5C 119.79,53.1611 123.457,59.8278 125.5,67.5C 127.856,70.1864 130.189,72.853 132.5,75.5C 134.118,78.1709 134.785,81.1709 134.5,84.5C 135.72,97.6915 137.386,110.692 139.5,123.5C 139.503,128.527 139.836,133.527 140.5,138.5C 138.784,138.371 137.117,138.038 135.5,137.5C 131.243,134.749 127.41,131.416 124,127.5C 119.665,120.498 116.165,113.165 113.5,105.5C 112.796,103.656 111.463,103.156 109.5,104C 108.941,104.725 108.608,105.558 108.5,106.5C 110.577,109.636 110.91,112.969 109.5,116.5C 113.41,118.216 115.077,121.216 114.5,125.5C 116.638,125.703 118.305,126.703 119.5,128.5C 120.833,129.833 120.833,131.167 119.5,132.5C 115.997,128.982 111.664,127.315 106.5,127.5C 102.394,125.612 98.3944,123.446 94.5,121C 92.9371,120.241 91.9371,119.074 91.5,117.5C 90.7659,116.292 90.4326,114.959 90.5,113.5C 85.5297,113.008 81.863,110.508 79.5,106C 78.1667,105.667 76.8333,105.333 75.5,105C 72.3226,102.322 69.3226,99.4884 66.5,96.5C 65.359,94.5787 65.1923,92.5787 66,90.5C 67.9134,93.0346 69.0801,92.5346 69.5,89C 65.5095,85.6638 60.8428,84.1638 55.5,84.5C 55.762,83.0222 55.4287,81.6888 54.5,80.5C 53.272,77.9875 51.6054,75.9875 49.5,74.5C 49.5,74.1667 49.5,73.8333 49.5,73.5C 49.3338,67.4908 49.5005,61.4908 50,55.5C 51.5489,52.6883 52.3822,49.6883 52.5,46.5C 54.0174,46.4894 55.1841,45.8228 56,44.5C 57.3557,41.6711 58.8557,39.0045 60.5,36.5C 61.9923,33.6769 64.3257,32.0102 67.5,31.5C 74.8052,30.4833 82.1385,30.3167 89.5,31C 93.5993,33.1302 97.9326,34.6302 102.5,35.5 Z"/></g>
<g><path style="opacity:0.565" fill="#a8a8a9" d="M 135.5,73.5 C 137.902,78.1006 139.235,83.1006 139.5,88.5C 137.721,83.7221 136.387,78.7221 135.5,73.5 Z"/></g>
<g><path style="opacity:0.106" fill="#cbd0d3" d="M 49.5,83.5 C 50.6737,84.5137 51.3404,85.847 51.5,87.5C 49.8958,86.713 49.2291,85.3797 49.5,83.5 Z"/></g>
<g><path style="opacity:1" fill="#2ca64f" d="M 49.5,74.5 C 51.6054,75.9875 53.272,77.9875 54.5,80.5C 55.4287,81.6888 55.762,83.0222 55.5,84.5C 60.8428,84.1638 65.5095,85.6638 69.5,89C 69.0801,92.5346 67.9134,93.0346 66,90.5C 65.1923,92.5787 65.359,94.5787 66.5,96.5C 69.3226,99.4884 72.3226,102.322 75.5,105C 76.8333,105.333 78.1667,105.667 79.5,106C 81.863,110.508 85.5297,113.008 90.5,113.5C 90.4326,114.959 90.7659,116.292 91.5,117.5C 72.057,108.391 58.057,94.058 49.5,74.5 Z"/></g>
<g><path style="opacity:0.118" fill="#cdcbce" d="M 51.5,87.5 C 52.9063,87.9731 53.573,88.9731 53.5,90.5C 52.0937,90.0269 51.427,89.0269 51.5,87.5 Z"/></g>
<g><path style="opacity:0.008" fill="#ddd4dc" d="M 53.5,90.5 C 54.9063,90.9731 55.573,91.9731 55.5,93.5C 54.0937,93.0269 53.427,92.0269 53.5,90.5 Z"/></g>
<g><path style="opacity:0.004" fill="#e3eae8" d="M 55.5,93.5 C 56.5,93.8333 57.1667,94.5 57.5,95.5C 56.1667,95.5 55.5,94.8333 55.5,93.5 Z"/></g>
<g><path style="opacity:0.02" fill="#c4c5c4" d="M 57.5,95.5 C 60.8333,98.1667 63.8333,101.167 66.5,104.5C 62.5,102.5 59.5,99.5 57.5,95.5 Z"/></g>
<g><path style="opacity:1" fill="#205d30" d="M 137.5,96.5 C 138.884,101.944 139.55,107.611 139.5,113.5C 138.116,108.056 137.45,102.389 137.5,96.5 Z"/></g>
<g><path style="opacity:0.251" fill="#d0ced2" d="M 140.5,93.5 C 141.544,97.5601 142.544,101.727 143.5,106C 143.272,106.399 142.938,106.565 142.5,106.5C 141.105,102.409 140.438,98.0758 140.5,93.5 Z"/></g>
<g><path style="opacity:0.384" fill="#a3a2a3" d="M 66.5,104.5 C 69.0892,105.419 71.0892,107.086 72.5,109.5C 69.9108,108.581 67.9108,106.914 66.5,104.5 Z"/></g>
<g><path style="opacity:0.231" fill="#c3c4c5" d="M 277.5,108.5 C 287.658,107.341 297.992,107.175 308.5,108C 311.797,108.204 314.797,109.037 317.5,110.5C 314.193,109.949 310.86,109.616 307.5,109.5C 297.552,108.55 287.552,108.216 277.5,108.5 Z"/></g>
<g><path style="opacity:0.004" fill="#d4ced4" d="M 317.5,110.5 C 319.898,110.259 321.898,110.926 323.5,112.5C 321.214,112.405 319.214,111.738 317.5,110.5 Z"/></g>
<g><path style="opacity:1" fill="#2e8248" d="M 273.5,112.5 C 276.287,111.523 279.287,111.19 282.5,111.5C 291.839,111.334 301.173,111.5 310.5,112C 311.416,112.278 312.082,112.778 312.5,113.5C 299.52,112.646 286.52,112.313 273.5,112.5 Z"/></g>
<g><path style="opacity:0.165" fill="#bdb7bd" d="M 72.5,109.5 C 74.7488,110.08 76.4154,111.413 77.5,113.5C 75.2512,112.92 73.5846,111.587 72.5,109.5 Z"/></g>
<g><path style="opacity:1" fill="#37a358" d="M 134.5,84.5 C 136.102,88.2393 137.102,92.2393 137.5,96.5C 137.45,102.389 138.116,108.056 139.5,113.5C 139.5,116.833 139.5,120.167 139.5,123.5C 137.386,110.692 135.72,97.6915 134.5,84.5 Z"/></g>
<g><path style="opacity:0.153" fill="#c4c4c4" d="M 323.5,112.5 C 325.38,112.229 326.713,112.896 327.5,114.5C 325.847,114.34 324.514,113.674 323.5,112.5 Z"/></g>
<g><path style="opacity:1" fill="#2a7e45" d="M 273.5,112.5 C 269.1,114.104 264.434,114.771 259.5,114.5C 263.919,113.028 268.586,112.362 273.5,112.5 Z"/></g>
<g><path style="opacity:1" fill="#23af4c" d="M 273.5,112.5 C 286.52,112.313 299.52,112.646 312.5,113.5C 317.653,114.405 322.653,115.905 327.5,118C 328.056,118.383 328.389,118.883 328.5,119.5C 330.796,124.273 331.129,129.273 329.5,134.5C 326.105,138.898 322.105,142.564 317.5,145.5C 314.049,145.526 311.382,147.026 309.5,150C 306.58,151.234 303.58,152.234 300.5,153C 299.167,153.667 298.167,154.667 297.5,156C 289.453,159.027 281.453,161.86 273.5,164.5C 271.162,166.04 268.495,166.706 265.5,166.5C 249.517,167.366 233.517,167.7 217.5,167.5C 214.833,167.5 212.167,167.5 209.5,167.5C 201.095,163.813 192.095,161.48 182.5,160.5C 180.694,159.976 179.028,159.309 177.5,158.5C 174.698,156.66 171.698,154.993 168.5,153.5C 169,153.167 169.5,152.833 170,152.5C 179.438,153.896 188.938,154.563 198.5,154.5C 204.5,154.5 210.5,154.5 216.5,154.5C 216.737,153.209 216.404,152.209 215.5,151.5C 204.334,150.597 193,149.93 181.5,149.5C 179.05,149.702 176.717,149.369 174.5,148.5C 169.774,146.406 164.774,144.906 159.5,144C 165.066,140.98 171.066,139.147 177.5,138.5C 181.012,136.79 184.345,134.79 187.5,132.5C 194.771,130.563 202.104,128.73 209.5,127C 210.858,126.066 212.192,125.232 213.5,124.5C 216.85,124.665 220.183,124.498 223.5,124C 226.02,123.579 228.02,122.412 229.5,120.5C 229.833,120.5 230.167,120.5 230.5,120.5C 240.813,120.684 250.48,118.684 259.5,114.5C 264.434,114.771 269.1,114.104 273.5,112.5 Z"/></g>
<g><path style="opacity:0.989" fill="#151d15" d="M 307.5,109.5 C 310.86,109.616 314.193,109.949 317.5,110.5C 319.214,111.738 321.214,112.405 323.5,112.5C 324.514,113.674 325.847,114.34 327.5,114.5C 328.492,114.328 329.158,114.662 329.5,115.5C 330.833,117.5 332.5,119.167 334.5,120.5C 335.754,124.818 335.754,129.152 334.5,133.5C 334.573,135.027 333.906,136.027 332.5,136.5C 330.413,137.585 329.08,139.251 328.5,141.5C 328.167,142.5 327.5,143.167 326.5,143.5C 325.167,143.5 323.833,143.5 322.5,143.5C 322.567,144.959 322.234,146.292 321.5,147.5C 321.5,148.167 321.167,148.5 320.5,148.5C 318.973,148.427 317.973,149.094 317.5,150.5C 315.853,152.326 313.853,153.66 311.5,154.5C 309.847,154.66 308.514,155.326 307.5,156.5C 305.181,156.992 303.181,157.992 301.5,159.5C 301.158,160.338 300.492,160.672 299.5,160.5C 297.447,160.402 295.78,161.069 294.5,162.5C 292.447,162.402 290.78,163.069 289.5,164.5C 288.791,165.404 287.791,165.737 286.5,165.5C 284.102,165.259 282.102,165.926 280.5,167.5C 276.738,167.691 273.071,168.358 269.5,169.5C 269.631,168.761 269.464,168.094 269,167.5C 266.959,168.423 264.792,168.756 262.5,168.5C 263.5,167.833 264.5,167.167 265.5,166.5C 268.495,166.706 271.162,166.04 273.5,164.5C 284.714,162.707 295.38,159.207 305.5,154C 309.742,151.39 313.742,148.557 317.5,145.5C 322.105,142.564 326.105,138.898 329.5,134.5C 332.129,130.973 332.962,126.973 332,122.5C 330.961,121.29 329.794,120.29 328.5,119.5C 328.389,118.883 328.056,118.383 327.5,118C 322.653,115.905 317.653,114.405 312.5,113.5C 312.082,112.778 311.416,112.278 310.5,112C 301.173,111.5 291.839,111.334 282.5,111.5C 290.833,110.833 299.167,110.167 307.5,109.5 Z"/></g>
<g><path style="opacity:0.118" fill="#cccbcc" d="M 77.5,113.5 C 79.8525,114.34 81.8525,115.674 83.5,117.5C 80.8021,117.155 78.8021,115.822 77.5,113.5 Z"/></g>
<g><path style="opacity:0.016" fill="#c9c5c7" d="M 329.5,115.5 C 332.167,116.167 333.833,117.833 334.5,120.5C 332.5,119.167 330.833,117.5 329.5,115.5 Z"/></g>
<g><path style="opacity:0.235" fill="#bbb7b7" d="M 83.5,117.5 C 85.0269,117.427 86.0269,118.094 86.5,119.5C 84.9731,119.573 83.9731,118.906 83.5,117.5 Z"/></g>
<g><path style="opacity:1" fill="#338a4d" d="M 259.5,114.5 C 250.48,118.684 240.813,120.684 230.5,120.5C 239.959,118.057 249.626,116.057 259.5,114.5 Z"/></g>
<g><path style="opacity:0.204" fill="#c4bfc1" d="M 86.5,119.5 C 88.0269,119.427 89.0269,120.094 89.5,121.5C 87.9731,121.573 86.9731,120.906 86.5,119.5 Z"/></g>
<g><path style="opacity:0.357" fill="#9c9da0" d="M 219.5,119.5 C 217.095,120.768 214.428,121.435 211.5,121.5C 213.838,119.96 216.505,119.294 219.5,119.5 Z"/></g>
<g><path style="opacity:0.989" fill="#1c201c" d="M 277.5,108.5 C 287.552,108.216 297.552,108.55 307.5,109.5C 299.167,110.167 290.833,110.833 282.5,111.5C 279.287,111.19 276.287,111.523 273.5,112.5C 268.586,112.362 263.919,113.028 259.5,114.5C 249.626,116.057 239.959,118.057 230.5,120.5C 230.167,120.5 229.833,120.5 229.5,120.5C 224.074,121.856 218.741,123.19 213.5,124.5C 208.506,125.661 203.506,126.828 198.5,128C 194.532,129.038 190.865,130.538 187.5,132.5C 175.196,135.242 163.196,138.908 151.5,143.5C 151.167,142.833 150.833,142.167 150.5,141.5C 151.167,140.833 151.833,140.167 152.5,139.5C 158.3,139.009 163.633,137.343 168.5,134.5C 171.916,134.472 174.916,133.472 177.5,131.5C 180.01,131.946 182.01,131.28 183.5,129.5C 193.097,127.408 202.43,124.741 211.5,121.5C 214.428,121.435 217.095,120.768 219.5,119.5C 238.381,114.058 257.714,110.392 277.5,108.5 Z"/></g>
<g><path style="opacity:0.192" fill="#c7bfc5" d="M 89.5,121.5 C 91.0269,121.427 92.0269,122.094 92.5,123.5C 90.9731,123.573 89.9731,122.906 89.5,121.5 Z"/></g>
<g><path style="opacity:1" fill="#308947" d="M 229.5,120.5 C 228.02,122.412 226.02,123.579 223.5,124C 220.183,124.498 216.85,124.665 213.5,124.5C 218.741,123.19 224.074,121.856 229.5,120.5 Z"/></g>
<g><path style="opacity:0.384" fill="#9c9a9c" d="M 211.5,121.5 C 202.43,124.741 193.097,127.408 183.5,129.5C 192.453,125.853 201.786,123.187 211.5,121.5 Z"/></g>
<g><path style="opacity:0.251" fill="#aea9ab" d="M 94.5,124.5 C 96.0269,124.427 97.0269,125.094 97.5,126.5C 95.9731,126.573 94.9731,125.906 94.5,124.5 Z"/></g>
<g><path style="opacity:0.345" fill="#b7b9b8" d="M 142.5,108.5 C 143.996,114.605 144.663,120.938 144.5,127.5C 143.253,121.37 142.586,115.037 142.5,108.5 Z"/></g>
<g><path style="opacity:1" fill="#3a9a57" d="M 328.5,119.5 C 329.794,120.29 330.961,121.29 332,122.5C 332.962,126.973 332.129,130.973 329.5,134.5C 331.129,129.273 330.796,124.273 328.5,119.5 Z"/></g>
<g><path style="opacity:0.439" fill="#a29f9f" d="M 334.5,120.5 C 335.117,120.611 335.617,120.944 336,121.5C 336.167,123.167 336.333,124.833 336.5,126.5C 336.684,129.205 336.017,131.538 334.5,133.5C 335.754,129.152 335.754,124.818 334.5,120.5 Z"/></g>
<g><path style="opacity:1" fill="#071808" d="M 113.5,105.5 C 116.165,113.165 119.665,120.498 124,127.5C 127.41,131.416 131.243,134.749 135.5,137.5C 136.687,139.975 138.687,140.975 141.5,140.5C 141.5,137.5 141.5,134.5 141.5,131.5C 142.461,133.265 142.795,135.265 142.5,137.5C 142.5,138.833 142.5,140.167 142.5,141.5C 140.167,141.5 137.833,141.5 135.5,141.5C 134.101,140.11 132.434,139.11 130.5,138.5C 120.511,129.512 113.845,118.512 110.5,105.5C 111.5,105.5 112.5,105.5 113.5,105.5 Z"/></g>
<g><path style="opacity:0.267" fill="#a7a6a7" d="M 99.5,127.5 C 101.027,127.427 102.027,128.094 102.5,129.5C 100.973,129.573 99.9731,128.906 99.5,127.5 Z"/></g>
<g><path style="opacity:1" fill="#36984f" d="M 113.5,105.5 C 112.5,105.5 111.5,105.5 110.5,105.5C 113.845,118.512 120.511,129.512 130.5,138.5C 129.167,138.5 127.833,138.5 126.5,138.5C 119.869,134.839 113.203,131.172 106.5,127.5C 111.664,127.315 115.997,128.982 119.5,132.5C 120.833,131.167 120.833,129.833 119.5,128.5C 118.305,126.703 116.638,125.703 114.5,125.5C 115.077,121.216 113.41,118.216 109.5,116.5C 110.91,112.969 110.577,109.636 108.5,106.5C 108.608,105.558 108.941,104.725 109.5,104C 111.463,103.156 112.796,103.656 113.5,105.5 Z"/></g>
<g><path style="opacity:0.133" fill="#c4c4c6" d="M 102.5,129.5 C 104.819,129.992 106.819,130.992 108.5,132.5C 105.911,132.539 103.911,131.539 102.5,129.5 Z"/></g>
<g><path style="opacity:0.788" fill="#818185" d="M 183.5,129.5 C 182.01,131.28 180.01,131.946 177.5,131.5C 179.214,130.262 181.214,129.595 183.5,129.5 Z"/></g>
<g><path style="opacity:1" fill="#2e7d42" d="M 213.5,124.5 C 212.192,125.232 210.858,126.066 209.5,127C 202.104,128.73 194.771,130.563 187.5,132.5C 190.865,130.538 194.532,129.038 198.5,128C 203.506,126.828 208.506,125.661 213.5,124.5 Z"/></g>
<g><path style="opacity:0.549" fill="#8c8c91" d="M 177.5,131.5 C 174.916,133.472 171.916,134.472 168.5,134.5C 171.215,132.928 174.215,131.928 177.5,131.5 Z"/></g>
<g><path style="opacity:0.129" fill="#c8cbc8" d="M 110.5,133.5 C 112.027,133.427 113.027,134.094 113.5,135.5C 111.973,135.573 110.973,134.906 110.5,133.5 Z"/></g>
<g><path style="opacity:0.624" fill="#8e8d8f" d="M 168.5,134.5 C 163.633,137.343 158.3,139.009 152.5,139.5C 157.574,137.313 162.908,135.646 168.5,134.5 Z"/></g>
<g><path style="opacity:0.125" fill="#c4caca" d="M 113.5,135.5 C 115.553,135.402 117.22,136.069 118.5,137.5C 116.447,137.598 114.78,136.931 113.5,135.5 Z"/></g>
<g><path style="opacity:1" fill="#32834b" d="M 139.5,113.5 C 140.577,119.312 141.243,125.312 141.5,131.5C 141.5,134.5 141.5,137.5 141.5,140.5C 138.687,140.975 136.687,139.975 135.5,137.5C 137.117,138.038 138.784,138.371 140.5,138.5C 139.836,133.527 139.503,128.527 139.5,123.5C 139.5,120.167 139.5,116.833 139.5,113.5 Z"/></g>
<g><path style="opacity:0.09" fill="#bdbcbc" d="M 332.5,136.5 C 331.92,138.749 330.587,140.415 328.5,141.5C 329.08,139.251 330.413,137.585 332.5,136.5 Z"/></g>
<g><path style="opacity:0.506" fill="#abaead" d="M 145.5,138.5 C 146.156,139.278 146.989,139.944 148,140.5C 149.44,139.852 150.94,139.519 152.5,139.5C 151.833,140.167 151.167,140.833 150.5,141.5C 149.5,141.5 148.5,141.5 147.5,141.5C 145.952,141.179 145.285,140.179 145.5,138.5 Z"/></g>
<g><path style="opacity:1" fill="#329650" d="M 187.5,132.5 C 184.345,134.79 181.012,136.79 177.5,138.5C 171.066,139.147 165.066,140.98 159.5,144C 164.774,144.906 169.774,146.406 174.5,148.5C 169.464,148.412 164.464,147.912 159.5,147C 156.334,146.678 153.667,145.511 151.5,143.5C 163.196,138.908 175.196,135.242 187.5,132.5 Z"/></g>
<g><path style="opacity:0.937" fill="#7c7c7d" d="M 326.5,143.5 C 325.415,145.587 323.749,146.92 321.5,147.5C 322.234,146.292 322.567,144.959 322.5,143.5C 323.833,143.5 325.167,143.5 326.5,143.5 Z"/></g>
<g><path style="opacity:0.977" fill="#323332" d="M 118.5,137.5 C 121.167,137.833 123.833,138.167 126.5,138.5C 127.833,138.5 129.167,138.5 130.5,138.5C 132.434,139.11 134.101,140.11 135.5,141.5C 136.091,142.151 136.757,142.818 137.5,143.5C 136.833,144.5 136.167,145.5 135.5,146.5C 137.631,147.169 139.631,147.835 141.5,148.5C 132.452,150.627 123.452,152.96 114.5,155.5C 111.146,155.747 108.146,156.747 105.5,158.5C 104.791,159.404 103.791,159.737 102.5,159.5C 103.815,158.105 103.481,157.105 101.5,156.5C 101.5,156.167 101.5,155.833 101.5,155.5C 104.699,154.101 108.032,153.101 111.5,152.5C 115.162,152.277 118.495,151.277 121.5,149.5C 126.076,148.975 130.41,147.641 134.5,145.5C 134.376,144.893 134.043,144.56 133.5,144.5C 128.07,142.95 123.07,140.616 118.5,137.5 Z"/></g>
<g><path style="opacity:0.624" fill="#777775" d="M 133.5,144.5 C 134.043,144.56 134.376,144.893 134.5,145.5C 130.41,147.641 126.076,148.975 121.5,149.5C 125.5,147.833 129.5,146.167 133.5,144.5 Z"/></g>
<g><path style="opacity:0.016" fill="#d7d8d8" d="M 320.5,148.5 C 320.027,149.906 319.027,150.573 317.5,150.5C 317.973,149.094 318.973,148.427 320.5,148.5 Z"/></g>
<g><path style="opacity:0.498" fill="#8e8e8e" d="M 121.5,149.5 C 118.495,151.277 115.162,152.277 111.5,152.5C 114.505,150.723 117.838,149.723 121.5,149.5 Z"/></g>
<g><path style="opacity:0.439" fill="#a5a5a5" d="M 141.5,148.5 C 143.492,156.086 144.492,164.086 144.5,172.5C 144.061,188.026 143.061,203.36 141.5,218.5C 141.903,203.315 142.57,188.148 143.5,173C 142.88,164.778 142.213,156.612 141.5,148.5 Z"/></g>
<g><path style="opacity:1" fill="#164b25" d="M 181.5,149.5 C 193,149.93 204.334,150.597 215.5,151.5C 215.167,151.5 214.833,151.5 214.5,151.5C 206.16,151.666 197.827,151.5 189.5,151C 186.635,150.817 183.969,150.317 181.5,149.5 Z"/></g>
<g><path style="opacity:1" fill="#368f4e" d="M 198.5,153.5 C 198.5,153.833 198.5,154.167 198.5,154.5C 188.938,154.563 179.438,153.896 170,152.5C 169.5,152.833 169,153.167 168.5,153.5C 171.698,154.993 174.698,156.66 177.5,158.5C 167.521,156.081 157.854,152.581 148.5,148C 164.999,150.889 181.666,152.722 198.5,153.5 Z"/></g>
<g><path style="opacity:1" fill="#083210" d="M 214.5,151.5 C 214.833,151.5 215.167,151.5 215.5,151.5C 216.404,152.209 216.737,153.209 216.5,154.5C 210.5,154.5 204.5,154.5 198.5,154.5C 198.5,154.167 198.5,153.833 198.5,153.5C 204.271,154.113 209.604,153.446 214.5,151.5 Z"/></g>
<g><path style="opacity:0.118" fill="#ced0cf" d="M 311.5,154.5 C 310.713,156.104 309.38,156.771 307.5,156.5C 308.514,155.326 309.847,154.66 311.5,154.5 Z"/></g>
<g><path style="opacity:0.49" fill="#aaaaaa" d="M 101.5,155.5 C 101.5,155.833 101.5,156.167 101.5,156.5C 99.5648,157.15 97.5648,157.483 95.5,157.5C 97.2143,156.262 99.2143,155.595 101.5,155.5 Z"/></g>
<g><path style="opacity:1" fill="#359a50" d="M 317.5,145.5 C 313.742,148.557 309.742,151.39 305.5,154C 295.38,159.207 284.714,162.707 273.5,164.5C 281.453,161.86 289.453,159.027 297.5,156C 298.167,154.667 299.167,153.667 300.5,153C 303.58,152.234 306.58,151.234 309.5,150C 311.382,147.026 314.049,145.526 317.5,145.5 Z"/></g>
<g><path style="opacity:0.192" fill="#aeaeae" d="M 114.5,155.5 C 111.854,157.253 108.854,158.253 105.5,158.5C 108.146,156.747 111.146,155.747 114.5,155.5 Z"/></g>
<g><path style="opacity:0.153" fill="#c9c9ca" d="M 307.5,156.5 C 306.089,158.539 304.089,159.539 301.5,159.5C 303.181,157.992 305.181,156.992 307.5,156.5 Z"/></g>
<g><path style="opacity:0.541" fill="#a1a1a1" d="M 95.5,157.5 C 93.8984,159.074 91.8984,159.741 89.5,159.5C 91.2143,158.262 93.2143,157.595 95.5,157.5 Z"/></g>
<g><path style="opacity:0.812" fill="#808080" d="M 89.5,159.5 C 89.3893,160.117 89.056,160.617 88.5,161C 84.8883,162.15 81.2217,162.983 77.5,163.5C 81.2157,161.595 85.2157,160.261 89.5,159.5 Z"/></g>
<g><path style="opacity:0.988" fill="#131313" d="M 101.5,156.5 C 103.481,157.105 103.815,158.105 102.5,159.5C 101.791,160.404 100.791,160.737 99.5,160.5C 93.0852,161.527 87.0852,163.527 81.5,166.5C 76.8354,167.057 72.5021,168.39 68.5,170.5C 62.7925,171.957 57.1258,173.624 51.5,175.5C 49.1966,175.124 48.8632,174.124 50.5,172.5C 59.9475,170.462 68.9475,167.462 77.5,163.5C 81.2217,162.983 84.8883,162.15 88.5,161C 89.056,160.617 89.3893,160.117 89.5,159.5C 91.8984,159.741 93.8984,159.074 95.5,157.5C 97.5648,157.483 99.5648,157.15 101.5,156.5 Z"/></g>
<g><path style="opacity:0.192" fill="#b5b5b5" d="M 299.5,160.5 C 298.22,161.931 296.553,162.598 294.5,162.5C 295.78,161.069 297.447,160.402 299.5,160.5 Z"/></g>
<g><path style="opacity:1" fill="#31874a" d="M 182.5,160.5 C 192.095,161.48 201.095,163.813 209.5,167.5C 206.126,167.326 202.793,166.826 199.5,166C 193.642,164.622 187.975,162.788 182.5,160.5 Z"/></g>
<g><path style="opacity:0.184" fill="#bab8bc" d="M 294.5,162.5 C 293.22,163.931 291.553,164.598 289.5,164.5C 290.78,163.069 292.447,162.402 294.5,162.5 Z"/></g>
<g><path style="opacity:0.122" fill="#c9c9c9" d="M 99.5,160.5 C 93.784,163.072 87.784,165.072 81.5,166.5C 87.0852,163.527 93.0852,161.527 99.5,160.5 Z"/></g>
<g><path style="opacity:0.157" fill="#b5b5ba" d="M 286.5,165.5 C 284.786,166.738 282.786,167.405 280.5,167.5C 282.102,165.926 284.102,165.259 286.5,165.5 Z"/></g>
<g><path style="opacity:1" fill="#36a358" d="M 265.5,166.5 C 264.5,167.167 263.5,167.833 262.5,168.5C 249.515,169.27 236.515,169.603 223.5,169.5C 221.5,168.833 219.5,168.167 217.5,167.5C 233.517,167.7 249.517,167.366 265.5,166.5 Z"/></g>
<g><path style="opacity:0.635" fill="#909090" d="M 77.5,163.5 C 68.9475,167.462 59.9475,170.462 50.5,172.5C 59.1475,168.747 68.1475,165.747 77.5,163.5 Z"/></g>
<g><path style="opacity:0.012" fill="#d0d0d0" d="M 81.5,166.5 C 77.4979,168.61 73.1646,169.943 68.5,170.5C 72.5021,168.39 76.8354,167.057 81.5,166.5 Z"/></g>
<g><path style="opacity:0.141" fill="#b8b6b7" d="M 280.5,167.5 C 276.761,169.102 272.761,170.102 268.5,170.5C 268.5,169.833 268.833,169.5 269.5,169.5C 273.071,168.358 276.738,167.691 280.5,167.5 Z"/></g>
<g><path style="opacity:0.988" fill="#161916" d="M 142.5,137.5 C 143.317,139.969 143.817,142.635 144,145.5C 144.69,143.65 145.856,142.316 147.5,141.5C 148.5,141.5 149.5,141.5 150.5,141.5C 150.833,142.167 151.167,142.833 151.5,143.5C 153.667,145.511 156.334,146.678 159.5,147C 164.464,147.912 169.464,148.412 174.5,148.5C 176.717,149.369 179.05,149.702 181.5,149.5C 183.969,150.317 186.635,150.817 189.5,151C 197.827,151.5 206.16,151.666 214.5,151.5C 209.604,153.446 204.271,154.113 198.5,153.5C 181.666,152.722 164.999,150.889 148.5,148C 157.854,152.581 167.521,156.081 177.5,158.5C 179.028,159.309 180.694,159.976 182.5,160.5C 187.975,162.788 193.642,164.622 199.5,166C 202.793,166.826 206.126,167.326 209.5,167.5C 213.919,168.972 218.586,169.638 223.5,169.5C 236.515,169.603 249.515,169.27 262.5,168.5C 264.792,168.756 266.959,168.423 269,167.5C 269.464,168.094 269.631,168.761 269.5,169.5C 268.833,169.5 268.5,169.833 268.5,170.5C 266.621,171.341 264.621,171.675 262.5,171.5C 248.518,172.343 234.518,172.676 220.5,172.5C 213.869,172.581 207.536,171.581 201.5,169.5C 193.706,166.795 185.706,164.461 177.5,162.5C 174.916,160.528 171.916,159.528 168.5,159.5C 167.01,157.72 165.01,157.054 162.5,157.5C 161.365,155.787 159.698,155.12 157.5,155.5C 155.824,153.166 153.491,152.166 150.5,152.5C 149.22,151.069 147.553,150.402 145.5,150.5C 145.232,152.099 145.566,153.432 146.5,154.5C 146.69,171.515 146.357,188.515 145.5,205.5C 144.865,220.835 144.198,236.168 143.5,251.5C 142.5,251.5 141.5,251.5 140.5,251.5C 139.844,250.378 139.511,249.045 139.5,247.5C 140.167,237.823 140.834,228.157 141.5,218.5C 143.061,203.36 144.061,188.026 144.5,172.5C 144.492,164.086 143.492,156.086 141.5,148.5C 139.631,147.835 137.631,147.169 135.5,146.5C 136.167,145.5 136.833,144.5 137.5,143.5C 136.757,142.818 136.091,142.151 135.5,141.5C 137.833,141.5 140.167,141.5 142.5,141.5C 142.5,140.167 142.5,138.833 142.5,137.5 Z"/></g>
<g><path style="opacity:1" fill="#1e5c30" d="M 209.5,167.5 C 212.167,167.5 214.833,167.5 217.5,167.5C 219.5,168.167 221.5,168.833 223.5,169.5C 218.586,169.638 213.919,168.972 209.5,167.5 Z"/></g>
<g><path style="opacity:0.682" fill="#a1a1a2" d="M 177.5,162.5 C 185.706,164.461 193.706,166.795 201.5,169.5C 193.055,168.348 185.055,166.015 177.5,162.5 Z"/></g>
<g><path style="opacity:0.698" fill="#8f8e8e" d="M 168.5,159.5 C 171.916,159.528 174.916,160.528 177.5,162.5C 174.215,162.072 171.215,161.072 168.5,159.5 Z"/></g>
<g><path style="opacity:0.839" fill="#827e7f" d="M 162.5,157.5 C 165.01,157.054 167.01,157.72 168.5,159.5C 166.214,159.405 164.214,158.738 162.5,157.5 Z"/></g>
<g><path style="opacity:0.745" fill="#919391" d="M 157.5,155.5 C 159.698,155.12 161.365,155.787 162.5,157.5C 160.447,157.598 158.78,156.931 157.5,155.5 Z"/></g>
<g><path style="opacity:0.659" fill="#696869" d="M 150.5,152.5 C 149.5,152.5 148.5,152.5 147.5,152.5C 147.167,151.167 146.833,151.167 146.5,152.5C 146.5,153.167 146.5,153.833 146.5,154.5C 145.566,153.432 145.232,152.099 145.5,150.5C 147.553,150.402 149.22,151.069 150.5,152.5 Z"/></g>
<g><path style="opacity:0.894" fill="#7a7678" d="M 150.5,152.5 C 153.491,152.166 155.824,153.166 157.5,155.5C 154.759,155.293 152.426,154.293 150.5,152.5 Z"/></g>
<g><path style="opacity:0.039" fill="#acacac" d="M 262.5,171.5 C 254.559,173.035 246.392,173.702 238,173.5C 231.99,173.499 226.157,173.166 220.5,172.5C 234.518,172.676 248.518,172.343 262.5,171.5 Z"/></g>
<g><path style="opacity:0.024" fill="#bebebe" d="M 68.5,170.5 C 62.3337,173.886 55.6671,175.886 48.5,176.5C 48.1568,174.517 48.8235,173.183 50.5,172.5C 48.8632,174.124 49.1966,175.124 51.5,175.5C 57.1258,173.624 62.7925,171.957 68.5,170.5 Z"/></g>
<g><path style="opacity:0.471" fill="#959595" d="M 146.5,152.5 C 146.833,152.5 147.167,152.5 147.5,152.5C 148.481,170.035 148.147,187.702 146.5,205.5C 146.167,205.5 145.833,205.5 145.5,205.5C 146.357,188.515 146.69,171.515 146.5,154.5C 146.5,153.833 146.5,153.167 146.5,152.5 Z"/></g>
<g><path style="opacity:0.996" fill="#242424" d="M 180.5,198.5 C 181.167,201.167 181.833,201.167 182.5,198.5C 182.851,195.762 183.518,193.096 184.5,190.5C 186.5,189.167 188.5,189.167 190.5,190.5C 188.573,196.381 186.573,202.214 184.5,208C 182.421,208.808 180.421,208.641 178.5,207.5C 177.668,204.839 176.834,202.172 176,199.5C 174.829,202.35 173.662,205.184 172.5,208C 170.527,208.495 168.527,208.662 166.5,208.5C 164.989,202.123 163.323,195.79 161.5,189.5C 163.5,189.5 165.5,189.5 167.5,189.5C 168.224,192.843 169.057,196.176 170,199.5C 171.265,196.539 172.431,193.539 173.5,190.5C 175.167,189.167 176.833,189.167 178.5,190.5C 179.785,193.021 180.452,195.687 180.5,198.5 Z"/></g>
<g><path style="opacity:0.996" fill="#1b1b1b" d="M 192.5,189.5 C 196.767,189.203 200.934,189.536 205,190.5C 207.386,194.794 206.886,198.627 203.5,202C 204.88,203.925 206.38,205.759 208,207.5C 210.715,202.029 213.049,196.362 215,190.5C 217.064,189.409 219.231,189.242 221.5,190C 223.927,195.777 226.26,201.61 228.5,207.5C 226.579,208.641 224.579,208.808 222.5,208C 221.619,206.529 220.286,205.696 218.5,205.5C 215.404,207.379 211.904,208.379 208,208.5C 203.215,209.564 199.882,207.897 198,203.5C 197.506,205.134 197.34,206.801 197.5,208.5C 195.833,208.5 194.167,208.5 192.5,208.5C 192.5,202.167 192.5,195.833 192.5,189.5 Z M 197.5,193.5 C 202.016,194.625 202.35,196.292 198.5,198.5C 197.548,196.955 197.215,195.288 197.5,193.5 Z M 217.5,197.5 C 218.167,197.5 218.833,197.5 219.5,197.5C 218.833,202.833 218.167,202.833 217.5,197.5 Z"/></g>
<g><path style="opacity:0.996" fill="#1a1a1a" d="M 230.5,189.5 C 234.514,189.334 238.514,189.501 242.5,190C 246.5,194 246.5,198 242.5,202C 240.19,202.497 237.857,202.663 235.5,202.5C 235.5,204.5 235.5,206.5 235.5,208.5C 233.833,208.5 232.167,208.5 230.5,208.5C 230.5,202.167 230.5,195.833 230.5,189.5 Z M 235.5,193.5 C 240.12,194.556 240.454,196.223 236.5,198.5C 235.548,196.955 235.215,195.288 235.5,193.5 Z"/></g>
<g><path style="opacity:0.995" fill="#232323" d="M 255.5,189.5 C 257.167,189.5 258.833,189.5 260.5,189.5C 260.335,193.182 260.501,196.848 261,200.5C 262.03,202.776 263.53,203.443 265.5,202.5C 266.492,198.217 266.826,193.884 266.5,189.5C 268.5,189.5 270.5,189.5 272.5,189.5C 272.666,194.179 272.499,198.845 272,203.5C 270.601,207.238 267.934,208.904 264,208.5C 260.332,209 257.666,207.666 256,204.5C 255.501,199.511 255.334,194.511 255.5,189.5 Z"/></g>
<g><path style="opacity:0.995" fill="#252525" d="M 275.5,189.5 C 279.514,189.334 283.514,189.501 287.5,190C 288.667,190.5 289.5,191.333 290,192.5C 292.339,200.325 289.505,203.658 281.5,202.5C 281.5,204.5 281.5,206.5 281.5,208.5C 279.5,208.5 277.5,208.5 275.5,208.5C 275.5,202.167 275.5,195.833 275.5,189.5 Z M 281.5,193.5 C 286.016,194.625 286.35,196.292 282.5,198.5C 281.548,196.955 281.215,195.288 281.5,193.5 Z"/></g>
<g><path style="opacity:0.22" fill="#a3a3a3" d="M 219.5,197.5 C 218.833,197.5 218.167,197.5 217.5,197.5C 218.167,194.833 218.833,194.833 219.5,197.5 Z"/></g>
<g><path style="opacity:0.318" fill="#a6a6a6" d="M 180.5,198.5 C 181.167,198.5 181.833,198.5 182.5,198.5C 181.833,201.167 181.167,201.167 180.5,198.5 Z"/></g>
<g><path style="opacity:0.994" fill="#303030" d="M 180.5,222.5 C 183.187,222.336 185.854,222.503 188.5,223C 189.603,224.68 189.27,226.18 187.5,227.5C 185.927,225.164 184.594,225.164 183.5,227.5C 185.733,228.742 187.899,230.076 190,231.5C 191.036,234.68 190.203,237.18 187.5,239C 183.882,239.966 180.549,239.466 177.5,237.5C 178.796,233.961 180.629,233.627 183,236.5C 183.75,235.874 184.584,235.374 185.5,235C 183.664,233.581 181.664,232.414 179.5,231.5C 178.064,228.232 178.397,225.232 180.5,222.5 Z"/></g>
<g><path style="opacity:0.996" fill="#272727" d="M 202.5,222.5 C 204.432,223.976 204.765,225.643 203.5,227.5C 200.293,226.435 197.959,227.601 196.5,231C 197.959,234.399 200.293,235.565 203.5,234.5C 204.765,236.357 204.432,238.024 202.5,239.5C 200.265,239.795 198.265,239.461 196.5,238.5C 196.027,237.094 195.027,236.427 193.5,236.5C 191.06,233.058 190.894,229.392 193,225.5C 195.642,222.971 198.808,221.971 202.5,222.5 Z"/></g>
<g><path style="opacity:0.995" fill="#1d1d1d" d="M 206.5,222.5 C 208.167,222.5 209.833,222.5 211.5,222.5C 211.5,224.833 211.5,227.167 211.5,229.5C 213.5,229.5 215.5,229.5 217.5,229.5C 217.5,227.167 217.5,224.833 217.5,222.5C 219.167,222.5 220.833,222.5 222.5,222.5C 222.5,228.167 222.5,233.833 222.5,239.5C 220.833,239.5 219.167,239.5 217.5,239.5C 217.5,237.167 217.5,234.833 217.5,232.5C 215.5,232.5 213.5,232.5 211.5,232.5C 211.5,234.833 211.5,237.167 211.5,239.5C 209.833,239.5 208.167,239.5 206.5,239.5C 206.5,233.833 206.5,228.167 206.5,222.5 Z"/></g>
<g><path style="opacity:0.996" fill="#292929" d="M 229.5,222.5 C 242.516,221.403 246.183,226.57 240.5,238C 227.153,241.987 222.653,237.487 227,224.5C 227.995,223.934 228.828,223.267 229.5,222.5 Z M 233.5,226.5 C 239.639,228.906 239.973,231.906 234.5,235.5C 228.467,232.881 228.133,229.881 233.5,226.5 Z"/></g>
<g><path style="opacity:0.997" fill="#282828" d="M 249.5,222.5 C 257.533,220.266 262.533,223.099 264.5,231C 262.525,239.062 257.525,241.729 249.5,239C 242.939,233.511 242.939,228.011 249.5,222.5 Z M 253.5,226.5 C 258.012,226.869 259.512,229.202 258,233.5C 254.312,236.239 251.812,235.406 250.5,231C 250.557,228.791 251.557,227.291 253.5,226.5 Z"/></g>
<g><path style="opacity:0.994" fill="#1e1e1e" d="M 266.5,222.5 C 268.167,222.5 269.833,222.5 271.5,222.5C 271.5,227.167 271.5,231.833 271.5,236.5C 273.167,236.5 274.833,236.5 276.5,236.5C 276.5,237.5 276.5,238.5 276.5,239.5C 273.167,239.5 269.833,239.5 266.5,239.5C 266.5,233.833 266.5,228.167 266.5,222.5 Z"/></g>
<g><path style="opacity:0.178" fill="#bdbdbd" d="M 202.5,222.5 C 203.5,222.5 204.5,222.5 205.5,222.5C 205.799,224.604 205.466,226.604 204.5,228.5C 203.893,228.376 203.56,228.043 203.5,227.5C 204.765,225.643 204.432,223.976 202.5,222.5 Z"/></g>
<g><path style="opacity:0.21" fill="#b4b4b4" d="M 145.5,205.5 C 145.833,205.5 146.167,205.5 146.5,205.5C 146.113,221.18 145.447,236.847 144.5,252.5C 142.901,252.768 141.568,252.434 140.5,251.5C 141.5,251.5 142.5,251.5 143.5,251.5C 144.198,236.168 144.865,220.835 145.5,205.5 Z"/></g>
<g><path style="opacity:0.185" fill="#bdbdbd" d="M 203.5,234.5 C 203.56,233.957 203.893,233.624 204.5,233.5C 205.466,235.396 205.799,237.396 205.5,239.5C 204.5,239.5 203.5,239.5 202.5,239.5C 204.432,238.024 204.765,236.357 203.5,234.5 Z"/></g>
<g><path style="opacity:0.718" fill="#838383" d="M 193.5,236.5 C 195.027,236.427 196.027,237.094 196.5,238.5C 194.973,238.573 193.973,237.906 193.5,236.5 Z"/></g>
</svg>
